In this darkly romantic ghost story, a woman (Academy Award Winner Mira Sorvino) travels to an isolated cabin where she finds herself stalked by an apparition (Shane West) ... 
 
http://www.imdb.com/title/tt1298594/

Subs: Dutch (srt).


Een vrouw reist af naar een afgelegen hut waar ze gestalkt wordt door een geest. Met de onverwachte komst van de vriend van de vrouw groeit de obsessieve spirituele kwelling. Al snel begint de vrouw vreemd irrationeel gedrag te vertonen wanneer de dunne lijn tussen gezond verstand en beheersing zich begint te ontrafelen.
 
http://www.moviemeter.nl/film/70371

Ondertitels: Nederlands (srt).

Original name: The.Presence.2010.FESTiVAL.DVDRip.XviD-iLG + Syncfix. Thanks!

General
Complete name                    : The Presence-AC3-DVDRip 2010.avi
Format                           : AVI
Format/Info                      : Audio Video Interleave
File size                        : 700 MiB
Duration                         : 1h 23mn
Overall bit rate                 : 1 174 Kbps
Writing application              : VirtualDubMod 1.5.4.1 (build 2178/release)
Writing library                  : VirtualDubMod build 2178/release

Video
ID                               : 0
Format                           : MPEG-4 Visual
Format profile                   : Advanced Simple@L5
Format settings, BVOP            : Yes
Format settings, QPel            : No
Format settings, GMC             : No warppoints
Format settings, Matrix          : Default (H.263)
Codec ID                         : XVID
Codec ID/Hint                    : XviD
Duration                         : 1h 23mn
Bit rate                         : 972 Kbps
Width                            : 608 pixels
Height                           : 336 pixels
Display aspect ratio             : 16:9
Frame rate                       : 25.000 fps
Resolution                       : 8 bits
Colorimetry                      : 4:2:0
Scan type                        : Progressive
Bits/(Pixel*Frame)               : 0.190
Stream size                      : 579 MiB (83%)
Writing library                  : XviD 1.2.1 (UTC 2008-12-04)

Audio
ID                               : 1
Format                           : AC-3
Format/Info                      : Audio Coding 3
Codec ID                         : 2000
Duration                         : 1h 23mn
Bit rate mode                    : Constant
Bit rate                         : 192 Kbps
Channel(s)                       : 2 channels
Channel positions                : L R
Sampling rate                    : 48.0 KHz
Video delay                      : 372ms
Stream size                      : 114 MiB (16%)
Alignment                        : Split accross interleaves
Interleave, duration             : 40 ms (1.00 video frame)
Interleave, preload duration     : 500 ms

Enjoy..

TBS.

Thanks to iLG and Simply ReleaseS Toppers.